<svg xmlns="http://www.w3.org/2000/svg" viewBox="0 0 400 400" width="800" height="800">
  <defs>
    <linearGradient id="bagg" x1="0" x2="1">
      <stop offset="0" stop-color="#062146"/>
      <stop offset=".35" stop-color="#334e73"/>
      <stop offset="1" stop-color="#00163b"/>
    </linearGradient>
  </defs>
  <ellipse cx="200" cy="372" rx="105" ry="12" fill="#0b1f44" opacity=".10"/>
  <path d="M112 72 L288 72 L300 362 L100 362 Z" fill="url(#bagg)"/>
  <path d="M110 44 L290 44 L290 76 L110 76 Z" fill="#102b50"/>
  <path d="M110 44 L115 38 L125 44 L135 38 L145 44 L155 38 L165 44 L175 38 L185 44 L195 38 L205 44 L215 38 L225 44 L235 38 L245 44 L255 38 L265 44 L275 38 L285 44 L290 44" fill="#102b50"/>
  <line x1="110" y1="76" x2="290" y2="76" stroke="#000" opacity=".25"/>
  <text x="200" y="128" text-anchor="middle" font-family="Georgia, 'Times New Roman', serif" font-size="34" letter-spacing="4" fill="#f4efe6">VIVAVO</text>
  <circle cx="200" cy="195" r="42" fill="none" stroke="#d6b36c" stroke-width="2"/>
  <path d="M176 190 h40 v8 a20 20 0 0 1 -40 0 Z" fill="#f4efe6"/>
  <path d="M216 194 a8 8 0 0 1 0 14" stroke="#f4efe6" stroke-width="3" fill="none"/>
  <path d="M186 180 q4 -8 0 -14 M198 180 q4 -8 0 -14" stroke="#f4efe6" stroke-width="2" fill="none" opacity=".7"/>
  <rect x="130" y="256" width="140" height="2" fill="#d6b36c"/>
  <text x="200" y="284" text-anchor="middle" font-family="'Segoe UI', Arial, sans-serif" font-weight="700" font-size="19" letter-spacing="2" fill="#f4efe6">CLASSICO</text>
  <text x="200" y="306" text-anchor="middle" font-family="'Segoe UI', Arial, sans-serif" font-size="12" letter-spacing="2" fill="#d6b36c">GROUND COFFEE</text>
  <text x="200" y="338" text-anchor="middle" font-family="'Segoe UI', Arial, sans-serif" font-weight="600" font-size="14" fill="#f4efe6" opacity=".85">250 g</text>
  <rect x="112" y="80" width="14" height="276" fill="#fff" opacity=".07"/></svg>