<svg xmlns="http://www.w3.org/2000/svg" viewBox="0 0 400 400" width="800" height="800">
  <defs>
    <linearGradient id="boxg" x1="0" x2="1">
      <stop offset="0" stop-color="#2e5eb2"/>
      <stop offset="1" stop-color="#003084"/>
    </linearGradient>
    <clipPath id="win"><rect x="135" y="220" width="130" height="118" rx="14"/></clipPath>
  </defs>
  <ellipse cx="200" cy="372" rx="100" ry="12" fill="#0b1f44" opacity=".10"/>
  <path d="M285 52 L306 66 L306 370 L285 360 Z" fill="#00085c"/>
  <rect x="112" y="52" width="174" height="308" rx="6" fill="url(#boxg)"/>
  <ellipse cx="199" cy="100" rx="64" ry="30" fill="#e2231a" stroke="#fff" stroke-width="3"/>
  <text x="199" y="109" text-anchor="middle" font-family="Georgia, 'Times New Roman', serif" font-style="italic" font-weight="700" font-size="27" fill="#fff">Barilla</text>
  <text x="199" y="162" text-anchor="middle" font-family="'Segoe UI', Arial, sans-serif" font-weight="700" font-size="17" letter-spacing="1.5" fill="#fff">PENNE RIGATE</text>
  <text x="199" y="186" text-anchor="middle" font-family="'Segoe UI', Arial, sans-serif" font-weight="600" font-size="14" fill="#fff" opacity=".9">N°73</text>
  <rect x="135" y="220" width="130" height="118" rx="14" fill="#5787db"/>
  <g clip-path="url(#win)"><g transform="rotate(-20 150 250)"><path d="M116 241 L176 241 L184 259 L124 259 Z" fill="#f1c24b"/>
           <line x1="130" y1="241" x2="138" y2="259" stroke="#d49b22" stroke-width="2"/><line x1="142" y1="241" x2="150" y2="259" stroke="#d49b22" stroke-width="2"/><line x1="154" y1="241" x2="162" y2="259" stroke="#d49b22" stroke-width="2"/><line x1="166" y1="241" x2="174" y2="259" stroke="#d49b22" stroke-width="2"/></g><g transform="rotate(25 215 262)"><path d="M181 253 L241 253 L249 271 L189 271 Z" fill="#f1c24b"/>
           <line x1="195" y1="253" x2="203" y2="271" stroke="#d49b22" stroke-width="2"/><line x1="207" y1="253" x2="215" y2="271" stroke="#d49b22" stroke-width="2"/><line x1="219" y1="253" x2="227" y2="271" stroke="#d49b22" stroke-width="2"/><line x1="231" y1="253" x2="239" y2="271" stroke="#d49b22" stroke-width="2"/></g><g transform="rotate(-35 175 300)"><path d="M141 291 L201 291 L209 309 L149 309 Z" fill="#f1c24b"/>
           <line x1="155" y1="291" x2="163" y2="309" stroke="#d49b22" stroke-width="2"/><line x1="167" y1="291" x2="175" y2="309" stroke="#d49b22" stroke-width="2"/><line x1="179" y1="291" x2="187" y2="309" stroke="#d49b22" stroke-width="2"/><line x1="191" y1="291" x2="199" y2="309" stroke="#d49b22" stroke-width="2"/></g><g transform="rotate(15 235 318)"><path d="M201 309 L261 309 L269 327 L209 327 Z" fill="#f1c24b"/>
           <line x1="215" y1="309" x2="223" y2="327" stroke="#d49b22" stroke-width="2"/><line x1="227" y1="309" x2="235" y2="327" stroke="#d49b22" stroke-width="2"/><line x1="239" y1="309" x2="247" y2="327" stroke="#d49b22" stroke-width="2"/><line x1="251" y1="309" x2="259" y2="327" stroke="#d49b22" stroke-width="2"/></g><g transform="rotate(40 190 280)"><path d="M156 271 L216 271 L224 289 L164 289 Z" fill="#f1c24b"/>
           <line x1="170" y1="271" x2="178" y2="289" stroke="#d49b22" stroke-width="2"/><line x1="182" y1="271" x2="190" y2="289" stroke="#d49b22" stroke-width="2"/><line x1="194" y1="271" x2="202" y2="289" stroke="#d49b22" stroke-width="2"/><line x1="206" y1="271" x2="214" y2="289" stroke="#d49b22" stroke-width="2"/></g></g>
  <rect x="135" y="220" width="130" height="118" rx="14" fill="none" stroke="#fff" stroke-width="3"/>
  <text x="270" y="352" text-anchor="end" font-family="'Segoe UI', Arial, sans-serif" font-weight="600" font-size="12" fill="#fff">500 g</text></svg>